<svg xmlns="http://www.w3.org/2000/svg" width="320" height="320" viewBox="0 0 320 320" fill="none">
  <defs>
    <style>
      .stroke { stroke: #0057b8; stroke-linecap: round; stroke-linejoin: round; fill: none; }
      .fill { fill: #0057b8; }
      .text { fill: #0057b8; font-family: "Arial", "Helvetica", sans-serif; font-weight: 700; letter-spacing: 2px; }
    </style>
  </defs>
  <circle cx="160" cy="160" r="146" class="stroke" stroke-width="10"/>
  <circle cx="160" cy="160" r="92" class="stroke" stroke-width="6"/>
  <path class="fill" d="M160 86c8 0 18 14 23 31l6 1c11 2 17 8 17 16 0 11-8 18-17 20v14c0 18-8 30-29 50-21-20-29-32-29-50v-14c-9-2-17-9-17-20 0-8 6-14 17-16l6-1c5-17 15-31 23-31Zm-33 51-10 3 18 8-8 8 16 2-4 10 21-14 21 14-4-10 16-2-8-8 18-8-10-3-33 9-33-9Z"/>
  <path class="stroke" stroke-width="7" d="M81 167c16 32 47 55 79 63 32-8 63-31 79-63"/>
  <text x="160" y="42" text-anchor="middle" class="text" font-size="28">浙  大</text>
  <text x="160" y="285" text-anchor="middle" class="text" font-size="23">ZHEJIANG UNIVERSITY</text>
  <text x="160" y="214" text-anchor="middle" class="text" font-size="20">1897</text>
</svg>
